# xmcd
# 
# Track frame offsets:
#     150
#     33712
#     56700
#     70900
#     93075
#     109425
#     131125
#     148125
#     164475
#     187325
#     203412
#     219400
#     241950
#     261400
#     286050
# 
# Disc length: 4092
# 
# Revision: 7
# Processed by: cddbd v1.5.2PL0 Copyright (c) Steve Scherf et al.
# Submitted via: fre:ac v1.0.27
# 
DISCID=f00ffa0f
DTITLE=S.E.N.S.(神思者) - STATEMENT
DYEAR=1994
DGENRE=New Age
TTITLE0=悲情城市
TTITLE1=人と時と風の中へ
TTITLE2=マサラ・ティー・ワルツ
TTITLE3=アゲインスト・ザ・ウィンド
TTITLE4=月の石と,地球の水
TTITLE5=バース
TTITLE6=リメンバリング・ミー
TTITLE7=ピース
TTITLE8=風のように
TTITLE9=ラヴ・イン・ソング
TTITLE10=ジャンビア・ダンス
TTITLE11=やさしさの選択
TTITLE12=アドヴェンチャー・フォー・ビーグル
TTITLE13=海神
TTITLE14=アフロディーテ
EXTD=
EXTT0=
EXTT1=
EXTT2=
EXTT3=
EXTT4=
EXTT5=
EXTT6=
EXTT7=
EXTT8=
EXTT9=
EXTT10=
EXTT11=
EXTT12=
EXTT13=
EXTT14=
PLAYORDER=
